<svg width="221" height="68" viewBox="0 0 221 68" fill="none" xmlns="http://www.w3.org/2000/svg">
<path d="M130.53 1.44435H112.021C111.845 1.44211 111.671 1.4911 111.523 1.58524C111.374 1.67938 111.257 1.81454 111.185 1.97394L101.6 23.6994L92.0082 1.97394C91.9379 1.81754 91.8235 1.68442 91.6787 1.5905C91.5338 1.49659 91.3646 1.44585 91.1913 1.44435H72.602C72.3627 1.44435 72.1332 1.53819 71.964 1.70522C71.7949 1.87226 71.6998 2.09881 71.6998 2.33503V48.027C71.6995 48.1476 71.7233 48.267 71.7699 48.3784C71.8164 48.4898 71.8848 48.5911 71.9712 48.6763C72.0575 48.7615 72.16 48.8291 72.2729 48.875C72.3858 48.921 72.5067 48.9445 72.6288 48.9442H88.9969C89.2433 48.9442 89.4796 48.8476 89.6538 48.6756C89.828 48.5036 89.9259 48.2703 89.9259 48.027V37.1944L85.32 25.5217H86.3514L92.9932 42.3724C93.0607 42.5448 93.1796 42.693 93.3341 42.7975C93.4886 42.9019 93.6716 42.9576 93.8588 42.9574H109.361C109.549 42.9576 109.732 42.9019 109.886 42.7975C110.041 42.693 110.159 42.5448 110.227 42.3724L116.871 25.5217H117.903L113.297 37.1944V48.027C113.296 48.1476 113.32 48.267 113.367 48.3784C113.413 48.4898 113.482 48.5911 113.568 48.6763C113.654 48.7615 113.757 48.8291 113.87 48.875C113.983 48.921 114.104 48.9445 114.226 48.9442H130.516C130.762 48.9442 130.998 48.8476 131.173 48.6756C131.347 48.5036 131.445 48.2703 131.445 48.027V2.33022C131.444 2.21273 131.419 2.09658 131.373 1.98843C131.326 1.88028 131.259 1.78225 131.174 1.69995C131.089 1.61766 130.988 1.55272 130.878 1.50886C130.767 1.465 130.649 1.44308 130.53 1.44435Z" fill="#2C130D"/>
<path d="M172.642 17.1829C172.888 17.1829 173.124 17.0863 173.299 16.9143C173.473 16.7423 173.571 16.509 173.571 16.2658V2.35668C173.569 2.11427 173.471 1.88222 173.297 1.71126C173.123 1.5403 172.887 1.44433 172.642 1.44434H133.737C133.49 1.44434 133.254 1.54097 133.08 1.71297C132.906 1.88497 132.808 2.11825 132.808 2.3615V48.027C132.808 48.2703 132.906 48.5036 133.08 48.6756C133.254 48.8476 133.49 48.9442 133.737 48.9442H172.642C172.888 48.9442 173.124 48.8476 173.299 48.6756C173.473 48.5036 173.571 48.2703 173.571 48.027V34.1179C173.571 33.8747 173.473 33.6414 173.299 33.4694C173.124 33.2974 172.888 33.2008 172.642 33.2008H150.685V31.9779H172.647C172.893 31.9779 173.129 31.8813 173.304 31.7093C173.478 31.5373 173.576 31.304 173.576 31.0607V19.323C173.576 19.0797 173.478 18.8465 173.304 18.6744C173.129 18.5024 172.893 18.4058 172.647 18.4058H150.685V17.1829H172.642Z" fill="#2C130D"/>
<path d="M220.071 1.44434H203.92C203.798 1.44402 203.677 1.46751 203.564 1.51346C203.451 1.55941 203.348 1.62692 203.261 1.71212C203.175 1.79732 203.106 1.89853 203.059 2.00996C203.013 2.12139 202.988 2.24086 202.988 2.3615V26.8216C202.988 30.6202 200.516 32.5219 197.971 32.5219C195.498 32.5219 192.953 30.6202 192.953 26.8216V2.35669C192.952 2.23656 192.928 2.11767 192.881 2.00681C192.834 1.89595 192.766 1.79528 192.679 1.71056C192.593 1.62584 192.491 1.55873 192.378 1.51305C192.266 1.46737 192.145 1.44402 192.024 1.44434H176.011C175.889 1.44402 175.768 1.46753 175.656 1.51351C175.543 1.55949 175.44 1.62703 175.354 1.71226C175.268 1.79749 175.199 1.89872 175.153 2.01014C175.106 2.12156 175.082 2.24097 175.082 2.3615V26.8216C175.082 42.4976 186.562 50.3019 198.041 50.3019C209.521 50.3019 221 42.4976 221 26.8216V2.35669C220.999 2.11428 220.9 1.88223 220.726 1.71127C220.552 1.5403 220.317 1.44434 220.071 1.44434Z" fill="#2C130D"/>
<path d="M76.0423 59.033L77.5053 62.7666V66.0838C77.5053 66.1994 77.4588 66.3102 77.3761 66.3919C77.2933 66.4736 77.181 66.5196 77.064 66.5196H72.1338C72.0168 66.5196 71.9045 66.4736 71.8217 66.3919C71.739 66.3102 71.6925 66.1994 71.6925 66.0838V51.7679C71.6925 51.6524 71.739 51.5415 71.8217 51.4598C71.9045 51.3781 72.0168 51.3322 72.1338 51.3322H77.8199C77.9058 51.3325 77.9898 51.3575 78.0617 51.4041C78.1335 51.4507 78.1901 51.5169 78.2246 51.5946L81.2505 58.448L84.2764 51.5946C84.3109 51.5169 84.3675 51.4507 84.4393 51.4041C84.5112 51.3575 84.5952 51.3325 84.6811 51.3322H90.3452C90.4623 51.3322 90.5746 51.3781 90.6573 51.4598C90.7401 51.5415 90.7866 51.6524 90.7866 51.7679V66.0838C90.7866 66.1994 90.7401 66.3102 90.6573 66.3919C90.5746 66.4736 90.4623 66.5196 90.3452 66.5196H85.4273C85.3102 66.5196 85.198 66.4736 85.1152 66.3919C85.0324 66.3102 84.9859 66.1994 84.9859 66.0838V62.7666L86.4489 59.033H86.1197L84.0301 64.329C83.9981 64.4105 83.9419 64.4806 83.8688 64.53C83.7956 64.5795 83.7091 64.6059 83.6205 64.6058H78.8707C78.7821 64.6059 78.6956 64.5795 78.6225 64.53C78.5494 64.4806 78.4931 64.4105 78.4611 64.329L76.3715 59.033H76.0423Z" fill="#2C130D"/>
<path d="M109.361 66.5195H104.19C104.099 66.5193 104.01 66.4915 103.936 66.4398C103.862 66.3881 103.806 66.3151 103.775 66.2307L100.43 57.0831L98.7841 61.4667H101.617L103.251 65.937C103.275 66.0028 103.282 66.0733 103.273 66.1425C103.263 66.2117 103.237 66.2777 103.197 66.335C103.156 66.3922 103.102 66.4391 103.04 66.4716C102.977 66.5041 102.907 66.5214 102.837 66.5219H91.6058C91.5341 66.5217 91.4635 66.5043 91.4001 66.471C91.3368 66.4378 91.2826 66.3898 91.2422 66.3313C91.2019 66.2727 91.1766 66.2053 91.1686 66.1349C91.1606 66.0645 91.17 65.9933 91.1962 65.9273L96.8725 51.6114C96.9048 51.53 96.9611 51.4601 97.0342 51.4108C97.1072 51.3614 97.1936 51.3349 97.2821 51.3346H103.583C103.671 51.3347 103.757 51.3608 103.83 51.4098C103.903 51.4587 103.96 51.5281 103.992 51.609L109.771 65.9249C109.797 65.9909 109.807 66.0621 109.799 66.1325C109.791 66.2029 109.765 66.2703 109.725 66.3289C109.685 66.3874 109.63 66.4354 109.567 66.4686C109.504 66.5018 109.433 66.5193 109.361 66.5195Z" fill="#2C130D"/>
<path d="M110.229 51.7679C110.229 51.6524 110.276 51.5415 110.359 51.4598C110.441 51.3781 110.554 51.3322 110.671 51.3322H116.535C122.667 51.3322 124.622 54.0668 124.557 57.254C124.532 58.838 123.808 60.487 122.094 61.0527L124.752 65.8672C124.788 65.9337 124.806 66.0083 124.804 66.0837C124.803 66.1591 124.781 66.2329 124.742 66.2978C124.703 66.3627 124.648 66.4165 124.582 66.4541C124.515 66.4917 124.44 66.5118 124.364 66.5123H119.405C119.322 66.5128 119.241 66.4906 119.171 66.448C119.101 66.4055 119.044 66.3444 119.007 66.2716L116.337 60.7686V58.6864H117.612C118.446 58.6864 118.832 58.1447 118.832 57.6248C118.832 57.1048 118.437 56.5608 117.612 56.5608H115.942V66.0838C115.942 66.1994 115.896 66.3102 115.813 66.3919C115.73 66.4736 115.618 66.5196 115.501 66.5196H110.671C110.554 66.5196 110.441 66.4736 110.359 66.3919C110.276 66.3102 110.229 66.1994 110.229 66.0838V51.7679Z" fill="#2C130D"/>
<path d="M146.75 56.7557H153.626C153.743 56.7557 153.855 56.8017 153.938 56.8834C154.021 56.9651 154.067 57.0759 154.067 57.1915V60.6627C154.067 60.7783 154.021 60.8891 153.938 60.9708C153.855 61.0525 153.743 61.0984 153.626 61.0984H146.75V61.4884H153.626C153.743 61.4884 153.855 61.5343 153.938 61.616C154.021 61.6977 154.067 61.8086 154.067 61.9241V66.0862C154.067 66.2018 154.021 66.3126 153.938 66.3943C153.855 66.4761 153.743 66.522 153.626 66.522H141.478C141.361 66.522 141.249 66.4761 141.166 66.3943C141.083 66.3126 141.037 66.2018 141.037 66.0862V51.7679C141.037 51.6524 141.083 51.5415 141.166 51.4598C141.249 51.3781 141.361 51.3322 141.478 51.3322H153.626C153.743 51.3322 153.855 51.3781 153.938 51.4598C154.021 51.5415 154.067 51.6524 154.067 51.7679V55.9301C154.067 56.0456 154.021 56.1564 153.938 56.2382C153.855 56.3199 153.743 56.3658 153.626 56.3658H146.75V56.7557Z" fill="#2C130D"/>
<path d="M164.634 57.9064L163.403 55.9325V51.7679C163.403 51.6524 163.45 51.5415 163.532 51.4598C163.615 51.3781 163.727 51.3322 163.844 51.3322H168.677C168.794 51.3329 168.905 51.379 168.988 51.4607C169.07 51.5423 169.116 51.6528 169.116 51.7679V66.0838C169.116 66.199 169.07 66.3094 168.988 66.3911C168.905 66.4727 168.794 66.5189 168.677 66.5196H163.581C163.506 66.5196 163.433 66.5008 163.368 66.465C163.302 66.4292 163.248 66.3776 163.208 66.3149L159.339 60.227H158.987L160.241 62.2226V66.0742C160.241 66.1898 160.194 66.3006 160.111 66.3823C160.029 66.464 159.916 66.5099 159.799 66.5099H154.967C154.85 66.5093 154.739 66.4631 154.656 66.3815C154.574 66.2998 154.528 66.1894 154.528 66.0742V51.7679C154.528 51.6528 154.574 51.5423 154.656 51.4607C154.739 51.379 154.85 51.3329 154.967 51.3322H159.78C159.854 51.3327 159.926 51.3512 159.991 51.3861C160.055 51.421 160.11 51.4711 160.151 51.532L164.296 57.9064H164.634Z" fill="#2C130D"/>
<path d="M175.268 56.7557H182.139C182.256 56.7557 182.368 56.8017 182.451 56.8834C182.534 56.9651 182.58 57.0759 182.58 57.1915V60.6627C182.58 60.7779 182.533 60.8881 182.45 60.9693C182.367 61.0504 182.255 61.096 182.139 61.096H175.263V61.486H182.139C182.256 61.486 182.368 61.5319 182.451 61.6136C182.534 61.6953 182.58 61.8062 182.58 61.9217V66.0838C182.58 66.1994 182.534 66.3102 182.451 66.3919C182.368 66.4736 182.256 66.5196 182.139 66.5196H169.996C169.879 66.5196 169.767 66.4736 169.684 66.3919C169.601 66.3102 169.555 66.1994 169.555 66.0838V51.7679C169.555 51.6524 169.601 51.5415 169.684 51.4598C169.767 51.3781 169.879 51.3322 169.996 51.3322H182.139C182.256 51.3322 182.368 51.3781 182.451 51.4598C182.534 51.5415 182.58 51.6524 182.58 51.7679V55.9301C182.58 56.0456 182.534 56.1564 182.451 56.2382C182.368 56.3199 182.256 56.3658 182.139 56.3658H175.263L175.268 56.7557Z" fill="#2C130D"/>
<path d="M183.463 51.3322H188.295C188.413 51.3322 188.525 51.3781 188.608 51.4598C188.69 51.5415 188.737 51.6524 188.737 51.7679V66.0838C188.737 66.1994 188.69 66.3102 188.608 66.3919C188.525 66.4736 188.413 66.5196 188.295 66.5196H183.463C183.405 66.5196 183.348 66.5083 183.294 66.4863C183.241 66.4644 183.192 66.4323 183.152 66.3918C183.111 66.3513 183.079 66.3033 183.057 66.2504C183.035 66.1976 183.024 66.1409 183.024 66.0838V51.7679C183.024 51.7108 183.035 51.6542 183.057 51.6014C183.079 51.5485 183.111 51.5005 183.152 51.46C183.192 51.4195 183.241 51.3873 183.294 51.3654C183.348 51.3435 183.405 51.3322 183.463 51.3322Z" fill="#2C130D"/>
<path d="M189.373 51.7679C189.373 51.6528 189.419 51.5423 189.502 51.4607C189.584 51.379 189.695 51.3329 189.812 51.3322H195.679C201.808 51.3322 203.764 54.0668 203.698 57.254C203.676 58.838 202.952 60.487 201.238 61.0527L203.893 65.8672C203.93 65.9336 203.949 66.0083 203.947 66.084C203.946 66.1597 203.925 66.2338 203.886 66.2989C203.846 66.3641 203.791 66.418 203.724 66.4554C203.657 66.4928 203.582 66.5124 203.505 66.5123H198.548C198.466 66.5128 198.385 66.4906 198.315 66.448C198.245 66.4055 198.188 66.3444 198.151 66.2716L195.481 60.7686V58.6864H196.768C197.602 58.6864 197.988 58.1447 197.988 57.6248C197.988 57.1048 197.593 56.5608 196.768 56.5608H195.086V66.0838C195.086 66.1994 195.04 66.3102 194.957 66.3919C194.874 66.4736 194.762 66.5196 194.645 66.5196H189.812C189.695 66.5189 189.584 66.4727 189.502 66.3911C189.419 66.3094 189.373 66.199 189.373 66.0838V51.7679Z" fill="#2C130D"/>
<path d="M203.596 58.9246C203.596 54.5001 207.375 50.8989 212.01 50.8989C216.645 50.8989 220.405 54.5097 220.405 58.9246C220.405 63.3395 216.648 66.9528 212.01 66.9528C207.373 66.9528 203.596 63.3516 203.596 58.9246ZM211.988 61.0743C212.424 61.0781 212.851 60.9539 213.214 60.7174C213.578 60.4809 213.862 60.1429 214.031 59.7464C214.2 59.3499 214.245 58.9128 214.161 58.4908C214.077 58.0688 213.868 57.681 213.56 57.3768C213.252 57.0725 212.86 56.8656 212.432 56.7823C212.005 56.6991 211.562 56.7433 211.161 56.9093C210.759 57.0752 210.416 57.3555 210.176 57.7144C209.936 58.0733 209.81 58.4946 209.813 58.9246C209.818 59.4926 210.048 60.0361 210.454 60.4381C210.86 60.8402 211.41 61.0686 211.986 61.0743H211.988Z" fill="#2C130D"/>
<path d="M134.634 59.3387C134.39 60.6194 133.035 61.421 131.552 60.8745C131.101 60.6799 130.735 60.3324 130.521 59.8948C129.843 58.2506 130.94 56.7316 132.491 56.7316C133.005 56.7313 133.502 56.9089 133.897 57.2335C134.292 57.5581 134.559 58.0092 134.651 58.5082H140.098C140.162 58.5077 140.226 58.4937 140.284 58.4673C140.343 58.4408 140.395 58.4025 140.437 58.3547C140.48 58.307 140.511 58.2509 140.53 58.1903C140.549 58.1296 140.555 58.0657 140.547 58.0027C139.996 53.0871 134.919 49.5123 129.575 51.4164C128.578 51.764 127.666 52.3133 126.897 53.0293C126.128 53.7452 125.52 54.6119 125.11 55.5738C122.672 61.3247 126.934 66.9504 132.518 66.9504C134.505 66.9418 136.42 66.2135 137.899 64.9037C139.379 63.5939 140.32 61.7936 140.544 59.8442C140.553 59.7812 140.547 59.7171 140.529 59.6562C140.51 59.5954 140.478 59.5392 140.436 59.4914C140.393 59.4435 140.341 59.4052 140.282 59.3789C140.224 59.3525 140.16 59.3389 140.096 59.3387H134.634Z" fill="#2C130D"/>
<path d="M29.9907 9.17645L20.9691 0.269624C20.8831 0.184465 20.7808 0.116902 20.6683 0.0708034C20.5557 0.024705 20.4351 0.000976562 20.3132 0.000976562C20.1914 0.000976563 20.0707 0.024705 19.9582 0.0708034C19.8456 0.116902 19.7434 0.184465 19.6573 0.269624L16.6217 3.27628C16.5349 3.36093 16.4661 3.46178 16.4192 3.57295C16.3723 3.68413 16.3483 3.8034 16.3486 3.92383V5.9074H14.3395C14.0926 5.90808 13.856 6.00497 13.6811 6.17702L3.95731 15.7795C2.19351 17.5243 1.20291 19.8887 1.20291 22.3537C1.20291 24.8188 2.19351 27.1832 3.95731 28.9279L10.2139 35.1049C10.7145 35.5981 11.3927 35.8751 12.0999 35.8751C12.8071 35.8751 13.4854 35.5981 13.9859 35.1049L14.2907 34.8016C14.5383 34.5573 14.7347 34.2672 14.8686 33.9479C15.0026 33.6286 15.0716 33.2864 15.0716 32.9408C15.0716 32.5952 15.0026 32.253 14.8686 31.9337C14.7347 31.6144 14.5383 31.3243 14.2907 31.08C13.6073 30.4032 13.2235 29.4864 13.2235 28.5307C13.2235 27.575 13.6073 26.6583 14.2907 25.9815L24.017 16.3813C24.1908 16.2084 24.2888 15.975 24.2901 15.7314V13.7478H26.2992C26.421 13.7484 26.5417 13.7251 26.6543 13.6792C26.7669 13.6333 26.8691 13.5658 26.9551 13.4806L29.9907 10.4715C30.077 10.3866 30.1454 10.2856 30.1921 10.1745C30.2388 10.0634 30.2628 9.9443 30.2628 9.824C30.2628 9.7037 30.2388 9.58458 30.1921 9.47347C30.1454 9.36235 30.077 9.26142 29.9907 9.17645ZM24.3583 6.33108L23.444 5.43077L20.5522 2.57336C20.4797 2.48491 20.3979 2.40423 20.3084 2.33264C20.1523 2.23875 20.0523 2.40485 19.9475 2.50837L18.7015 3.73606C18.6168 3.8197 18.5019 3.86669 18.3821 3.86669C18.2623 3.86669 18.1474 3.8197 18.0627 3.73606C17.978 3.65243 17.9304 3.53899 17.9304 3.42071C17.9304 3.30243 17.978 3.189 18.0627 3.10536C18.5309 2.64799 18.9844 2.16654 19.4598 1.72842C19.6433 1.54029 19.8919 1.42757 20.156 1.41283C20.4201 1.3981 20.6801 1.48245 20.8838 1.64898C20.9789 1.72842 21.0642 1.81749 21.152 1.90415L22.5174 3.25221L24.9947 5.70038C25.4068 6.1072 24.768 6.74031 24.3583 6.33108Z" fill="#2C130D"/>
<path d="M27.4427 23.3624L21.5372 17.532C21.3597 17.3661 21.1246 17.2736 20.8801 17.2736C20.6357 17.2736 20.4005 17.3661 20.223 17.532L14.2444 23.4346C14.158 23.5198 14.0896 23.6209 14.0428 23.7322C13.9961 23.8435 13.9721 23.9628 13.9721 24.0833C13.9721 24.2038 13.9961 24.3231 14.0428 24.4345C14.0896 24.5458 14.158 24.6469 14.2444 24.7321L20.1499 30.5721C20.3235 30.7426 20.5584 30.8383 20.8033 30.8383C21.0482 30.8383 21.2832 30.7426 21.4568 30.5721L27.4354 24.6695C27.5237 24.5846 27.594 24.4833 27.6422 24.3713C27.6905 24.2594 27.7156 24.1391 27.7163 24.0174C27.717 23.8958 27.6932 23.7752 27.6462 23.6628C27.5992 23.5503 27.5301 23.4482 27.4427 23.3624ZM25.1825 24.0051L24.6777 23.5068L21.1301 20.0042C21.0453 19.9206 20.9977 19.8072 20.9977 19.6889C20.9977 19.5706 21.0453 19.4572 21.1301 19.3736C21.2148 19.2899 21.3297 19.2429 21.4495 19.2429C21.5693 19.2429 21.6842 19.2899 21.7689 19.3736L22.2736 19.8719L25.8213 23.3744C26.2309 23.7812 25.6018 24.4119 25.1825 24.0051Z" fill="#2C130D"/>
<path d="M42.4869 38.2175C42.3778 38.1126 42.2442 38.0357 42.0979 37.9937C41.9517 37.9518 41.7972 37.9459 41.6481 37.9768L41.1409 38.0755C40.9268 38.1193 40.735 38.2357 40.5987 38.4045C40.4624 38.5734 40.3903 38.784 40.3948 38.9998L40.4241 40.0855C40.4376 40.5794 40.2737 41.0621 39.9613 41.448C39.6489 41.834 39.2082 42.0984 38.7173 42.1943L37.4982 42.435C37.284 42.4779 37.0919 42.5937 36.9556 42.7622C36.8192 42.9308 36.7471 43.1413 36.7521 43.357L36.7813 44.4426C36.7904 44.8704 36.6661 45.2906 36.4253 45.6463C36.3074 45.8224 36.2547 46.0333 36.276 46.2434C36.2973 46.4534 36.3914 46.6498 36.5424 46.7993L42.9404 53.1015L50.2552 45.8798L42.4869 38.2175ZM47.0733 45.6198L46.571 45.1215L44.3595 42.9381C44.2747 42.8545 44.2272 42.741 44.2272 42.6228C44.2272 42.5045 44.2747 42.391 44.3595 42.3074C44.4442 42.2238 44.5591 42.1768 44.6789 42.1768C44.7987 42.1768 44.9136 42.2238 44.9983 42.3074L45.503 42.8057L47.7145 44.9891C47.7992 45.073 47.8467 45.1868 47.8465 45.3053C47.8462 45.4238 47.7983 45.5374 47.7133 45.621C47.6283 45.7046 47.5131 45.7515 47.393 45.7513C47.273 45.751 47.158 45.7037 47.0733 45.6198Z" fill="#2C130D"/>
<path d="M65.1335 59.7456C64.541 57.3383 63.278 55.711 60.9129 54.5339C60.6934 54.4231 60.4764 54.3196 60.2643 54.2161C59.9494 54.0672 59.6233 53.9425 59.289 53.843L58.5746 53.6311C58.1319 53.4999 57.729 53.2625 57.4018 52.9403L50.8916 46.5105L43.5768 53.7322L45.3835 55.5112L49.6408 51.3081C49.7976 51.1513 50.0043 51.0523 50.2262 51.0278C50.4481 51.0033 50.6718 51.0546 50.8599 51.1733C50.9701 51.2506 51.0619 51.3506 51.1289 51.4664C51.1959 51.5822 51.2365 51.7111 51.2479 51.8441C51.2593 51.977 51.2411 52.1108 51.1948 52.2361C51.1484 52.3614 51.0749 52.4752 50.9794 52.5695L46.688 56.8063L47.8145 57.9136L52.1229 53.6817C52.2185 53.5874 52.3338 53.5148 52.4607 53.469C52.5876 53.4233 52.7231 53.4053 52.8578 53.4166C52.9924 53.4278 53.1229 53.4679 53.2403 53.5341C53.3576 53.6002 53.4589 53.6909 53.5371 53.7997C53.6573 53.9854 53.7094 54.2062 53.6845 54.4253C53.6597 54.6444 53.5594 54.8484 53.4006 55.0033L49.1507 59.2015L50.126 60.1644L50.2747 60.3113L54.5222 56.1154C54.6791 55.9586 54.8857 55.8596 55.1076 55.8351C55.3295 55.8106 55.5532 55.8619 55.7413 55.9806C55.8519 56.0578 55.9441 56.1579 56.0113 56.274C56.0786 56.39 56.1194 56.5192 56.1308 56.6525C56.1421 56.7857 56.1239 56.9198 56.0772 57.0454C56.0306 57.1709 55.9567 57.2848 55.8608 57.3792L51.5767 61.6088L52.7008 62.7185L56.9507 58.5251C57.1073 58.3679 57.3138 58.2685 57.5357 58.2435C57.7576 58.2185 57.9814 58.2695 58.1698 58.3879C58.2804 58.4651 58.3726 58.5652 58.4399 58.6812C58.5071 58.7973 58.5479 58.9265 58.5593 59.0597C58.5707 59.193 58.5524 59.3271 58.5058 59.4526C58.4591 59.5781 58.3852 59.6921 58.2893 59.7865L54.0053 64.016L55.1293 65.1258L59.3792 60.9299C59.5361 60.7731 59.7427 60.6741 59.9646 60.6496C60.1865 60.6251 60.4102 60.6764 60.5984 60.7951C60.7089 60.8723 60.8011 60.9724 60.8684 61.0885C60.9357 61.2045 60.9764 61.3337 60.9878 61.467C60.9992 61.6002 60.9809 61.7343 60.9343 61.8598C60.8876 61.9854 60.8138 62.0993 60.7178 62.1937L56.4338 66.4233L57.1531 67.131C57.4252 67.4006 57.7486 67.6145 58.1047 67.7603C58.4608 67.9061 58.8425 67.9811 59.228 67.9808C59.6137 67.9807 59.9956 67.9054 60.3517 67.7592C60.7078 67.613 61.0311 67.3986 61.303 67.1286C64.2558 64.2038 64.3045 64.1484 64.346 64.0979C65.0287 63.342 65.6821 61.9771 65.1335 59.7456ZM54.5392 52.9884L54.0321 52.4901L50.8063 49.3029C50.7215 49.2193 50.6739 49.1058 50.6739 48.9876C50.6739 48.8693 50.7215 48.7558 50.8063 48.6722C50.891 48.5886 51.0059 48.5416 51.1257 48.5416C51.2455 48.5416 51.3604 48.5886 51.4451 48.6722L51.9498 49.1705L55.1756 52.3577C55.5926 52.7645 54.9489 53.3952 54.5392 52.9884Z" fill="#2C130D"/>
<path d="M12.5156 8.6252C11.7715 7.89197 10.763 7.48016 9.71164 7.48016C8.66026 7.48016 7.65182 7.89197 6.90762 8.6252L5.22278 10.2886C4.4801 11.0233 4.06299 12.0189 4.06299 13.0569C4.06299 14.095 4.4801 15.0906 5.22278 15.8253C5.30852 15.9109 5.41067 15.9789 5.52328 16.0252C5.63588 16.0715 5.7567 16.0952 5.87867 16.0949C6.12565 16.0947 6.36245 15.9978 6.53701 15.8253L12.5156 9.92271C12.602 9.83753 12.6705 9.7364 12.7172 9.62508C12.7639 9.51377 12.788 9.39445 12.788 9.27395C12.788 9.15346 12.7639 9.03414 12.7172 8.92283C12.6705 8.81151 12.602 8.71037 12.5156 8.6252ZM10.2407 9.36182C10.0615 9.18324 9.83287 9.06081 9.58349 9.00985C9.33412 8.9589 9.07506 8.98169 8.83874 9.07536C8.57702 9.20522 8.34475 9.38621 8.15602 9.60736C7.69437 10.0647 7.23273 10.5205 6.77108 10.9747C6.36145 11.3815 5.72263 10.7508 6.13469 10.344L6.62235 9.86253C7.01003 9.47977 7.38796 9.0898 7.7854 8.71427C8.20281 8.32195 8.75818 8.10494 9.33448 8.10898C9.91078 8.11302 10.463 8.3378 10.8747 8.73593C10.9439 8.82152 10.9787 8.92929 10.9725 9.03864C10.9664 9.14798 10.9196 9.25125 10.8411 9.32869C10.7627 9.40613 10.6581 9.45232 10.5473 9.45843C10.4366 9.46454 10.3274 9.43015 10.2407 9.36182Z" fill="#2C130D"/>
<path d="M64.4776 8.9598L55.8632 0.454987C55.7772 0.369828 55.6749 0.302266 55.5624 0.256167C55.4498 0.210069 55.3292 0.18634 55.2073 0.18634C55.0855 0.18634 54.9648 0.210069 54.8523 0.256167C54.7397 0.302266 54.6375 0.369828 54.5514 0.454987L14.0079 40.4803L13.903 40.3768C13.4522 39.9381 12.8604 39.6685 12.2298 39.6145C11.5991 39.5605 10.9691 39.7254 10.4485 40.0808C9.92782 40.4362 9.5491 40.9599 9.37764 41.5615C9.20618 42.1631 9.25273 42.8049 9.50926 43.3763L0.809508 51.9533C0.31362 52.4457 0.0260358 53.1059 0.00510388 53.8C-0.0158281 54.4941 0.23146 55.17 0.696795 55.6907C1.16213 56.2113 1.81066 56.5377 2.51081 56.6037C3.21096 56.6696 3.91029 56.4701 4.46691 56.0456C6.51994 59.0499 11.6671 66.5533 12.3279 67.2056C12.8476 67.7175 13.5517 68.0049 14.2858 68.0049C15.0199 68.0049 15.7241 67.7175 16.2438 67.2056L24.9362 58.6238C25.5141 58.8752 26.1627 58.92 26.7704 58.7504C27.3781 58.5807 27.907 58.2074 28.266 57.6945C28.6251 57.1815 28.7919 56.5611 28.7378 55.9399C28.6836 55.3187 28.4119 54.7356 27.9694 54.2907L27.7256 54.05C27.8922 53.9762 28.0331 53.8556 28.1307 53.7031C28.2283 53.5507 28.2782 53.3733 28.2742 53.193L28.201 50.3452L31.1733 49.7555C31.3876 49.7121 31.5798 49.5958 31.7161 49.4268C31.8525 49.2579 31.9244 49.0471 31.9194 48.8311L31.8463 45.9857L34.8185 45.3935C35.0331 45.3516 35.2257 45.236 35.3623 45.0672C35.4989 44.8985 35.5705 44.6875 35.5646 44.4716L35.4915 41.6262L38.4637 41.034C38.6783 40.992 38.871 40.8764 39.0075 40.7077C39.1441 40.5389 39.2157 40.3279 39.2098 40.112L39.1367 37.2667L42.1114 36.6745C42.3255 36.632 42.5176 36.5162 42.6537 36.3475C42.7897 36.1788 42.8611 35.9681 42.8551 35.7525L42.7819 32.9047L45.7566 32.3149C45.9705 32.2716 46.1623 32.1557 46.2986 31.9872C46.4349 31.8188 46.5072 31.6085 46.5027 31.393L46.4296 28.5452L49.4018 27.9554C49.6164 27.9125 49.8088 27.7963 49.9452 27.6272C50.0817 27.4582 50.1534 27.2471 50.1479 27.031L50.0748 24.1857L53.0665 23.5911C53.2811 23.5491 53.4738 23.4335 53.6103 23.2647C53.7469 23.096 53.8185 22.885 53.8126 22.6691L53.7395 19.8237L56.7142 19.2315C56.9309 19.1887 57.125 19.0707 57.2613 18.899C57.3977 18.7273 57.4674 18.5131 57.4579 18.2951L57.3847 15.4497L60.3594 14.8576C60.5711 14.8122 60.76 14.6952 60.8936 14.5268C61.0272 14.3585 61.097 14.1494 61.0909 13.9356L61.0177 11.0878L63.9924 10.498C64.1567 10.4645 64.3087 10.3878 64.4325 10.2761C64.5563 10.1643 64.6472 10.0216 64.6956 9.86312C64.7441 9.70458 64.7483 9.53607 64.7077 9.37538C64.6672 9.21469 64.5835 9.06779 64.4655 8.95017L64.4776 8.9598ZM24.5558 35.868C24.6452 35.8679 24.7326 35.8939 24.8069 35.9428C24.8813 35.9917 24.9392 36.0614 24.9734 36.1428C25.0076 36.2243 25.0166 36.314 24.9991 36.4005C24.9816 36.487 24.9385 36.5664 24.8752 36.6287L24.7558 36.7467L17.4922 43.9227L16.8533 43.292L24.2364 36.0053C24.3221 35.9223 24.4359 35.8734 24.5558 35.868ZM12.3645 40.62C12.4493 40.5363 12.564 40.4887 12.6839 40.4876C12.8036 40.4897 12.9179 40.5371 13.0033 40.62L13.1203 40.7355L13.9445 41.5516C14.0268 41.6369 14.0745 41.7491 14.0786 41.8669C14.0785 41.9256 14.0666 41.9837 14.0436 42.0379C14.0206 42.092 13.9869 42.1411 13.9445 42.1823C13.8596 42.2659 13.745 42.3135 13.6251 42.3147C13.5054 42.3125 13.3911 42.2651 13.3056 42.1823L13.1886 42.0667L12.3645 41.2482C12.281 41.1648 12.2337 41.0526 12.2328 40.9353C12.2319 40.8784 12.2424 40.8218 12.2638 40.769C12.2851 40.7161 12.3168 40.6679 12.3572 40.6272L12.3645 40.62ZM16.6631 58.4721L14.3858 60.7157L8.44617 52.4083L9.47512 51.3924C10.216 50.6631 11.2195 50.2536 12.2657 50.2536C13.3119 50.2536 14.3154 50.6631 15.0563 51.3924L16.6558 52.9716C17.3949 53.7023 17.8101 54.6928 17.8101 55.7254C17.8101 56.7581 17.3949 57.7486 16.6558 58.4793L16.6631 58.4721ZM27.9304 55.6075C28.0977 56.0536 28.0938 56.5447 27.9196 56.9882C27.7453 57.4316 27.4126 57.7968 26.9843 58.0147C26.4699 58.2795 26.009 57.5092 26.5284 57.2468C26.6806 57.1783 26.8143 57.0754 26.9188 56.9464C27.0233 56.8175 27.0957 56.6661 27.1301 56.5045C27.1645 56.3429 27.1599 56.1755 27.1168 56.016C27.0737 55.8564 26.9933 55.7091 26.8819 55.5858C25.8091 54.4568 24.6607 53.3928 23.5537 52.2975C23.1416 51.8931 23.7805 51.2624 24.1925 51.6692L24.8826 52.3505L27.2184 54.659C27.5235 54.9197 27.7666 55.2435 27.9304 55.6075ZM54.3734 9.28719C54.1025 9.28766 53.8375 9.20868 53.6121 9.06025C53.3867 8.91183 53.211 8.70065 53.1073 8.45351C53.0036 8.20637 52.9766 7.93439 53.0297 7.67207C53.0828 7.40975 53.2136 7.16891 53.4055 6.98009C53.5975 6.79127 53.8419 6.66299 54.1078 6.6115C54.3737 6.56002 54.649 6.58765 54.899 6.69091C55.149 6.79416 55.3622 6.96837 55.5117 7.19145C55.6613 7.41454 55.7403 7.67644 55.7389 7.94394C55.7369 8.30044 55.5923 8.64172 55.3365 8.89335C55.0807 9.14499 54.7345 9.28656 54.3734 9.28719ZM59.0452 6.09758L58.1601 5.22375L55.4292 2.52763C55.3694 2.45538 55.3025 2.38925 55.2293 2.33024C55.0635 2.22913 54.9196 2.46023 54.8123 2.57096C54.4173 2.96254 54.0215 3.35332 53.6249 3.74329C53.2153 4.15012 52.5764 3.51942 52.9885 3.11259C53.442 2.66244 53.8931 2.20747 54.3539 1.76453C54.5091 1.59314 54.7169 1.47676 54.9455 1.43327C55.1741 1.38978 55.4109 1.42159 55.6194 1.52381C55.7732 1.61595 55.9121 1.73036 56.0315 1.86323L57.2994 3.12944L59.6791 5.47892C59.7436 5.56517 59.7744 5.67151 59.7659 5.77839C59.7574 5.88528 59.7101 5.98554 59.6327 6.06076C59.5553 6.13599 59.4531 6.18113 59.3447 6.18789C59.2363 6.19466 59.1291 6.16259 59.0427 6.09758H59.0452Z" fill="#2C130D"/>
</svg>
